<?xml version="1.0" encoding="UTF-8"?>
<svg id="Layer_2" data-name="Layer 2" xmlns="http://www.w3.org/2000/svg" viewBox="0 0 393.87 66.38">
  <defs>
    <style>
      .cls-1 {
        fill: #f18500;
      }

      .cls-2 {
        fill: #ef7d00;
      }

      .cls-3 {
        fill: #fff;
      }
    </style>
  </defs>
  <g id="Layer_1-2" data-name="Layer 1">
    <g>
      <g>
        <path class="cls-3" d="M40.1,49.91l13.96-10.35-10.31-2.62-14.06,9.11,10.41,3.86ZM69.1,43.38l-12.65-3.22-13.79,10.69,13.68,5.07,12.76-12.55ZM56.61,60.24l-5.28,5.56c3.61-.68,7.02-1.95,10.12-3.7l-4.84-1.86ZM36.54,52.54l-10.6-4.07-7.28,4.73c2.07,2.74,4.56,5.15,7.37,7.13l10.51-7.79ZM70.27,29.45l7.97,1.33c-.17-2.28-.56-4.49-1.16-6.62l-6.81,5.28ZM76.43,22.11c-.61-1.71-1.35-3.35-2.21-4.92l-6.46,4.19,8.67.73ZM39.18,53.55l-10.74,8.33c4.9,2.87,10.62,4.51,16.7,4.51.19,0,.37-.01.57-.01l7.54-7.42-14.07-5.4ZM56.45,37.79l9.98-7.4-9.84-1.78-10.26,6.65,10.13,2.53ZM78.02,37.72l-4.18,4.4,3.06.77c.51-1.67.88-3.4,1.12-5.17M71.95,44.1l-12.38,13.02,6,2.22c4.68-3.66,8.35-8.55,10.53-14.19l-4.15-1.05ZM65.98,22.52l-7.61,4.94,9.8,1.64,7.75-5.75-9.94-.83ZM58.77,38.36l12.3,3.07,7.23-7.11c.01-.37.03-.75.03-1.13,0-.22,0-.44-.01-.66l-9.77-1.76-9.79,7.59Z"/>
        <path class="cls-1" d="M78.33,12.85l-6.53.57C65.75,5.28,56.06,0,45.14,0c-5.25,0-10.22,1.23-14.64,3.4v13.45h-14.26c-2.74,4.83-4.3,10.4-4.3,16.35,0,5.27,1.23,10.24,3.41,14.67l-7.4,8.03L78.33,12.85ZM34.08,13.28h6.77v6.78h-6.77v-6.78ZM15.41,13.62h12.04V1.57h-12.04v12.04ZM3.21,18.02h8.81v-8.81H3.21v8.81ZM0,6.52h4.95V1.57H0v4.95Z"/>
      </g>
      <g>
        <path class="cls-2" d="M356.74,14.92h9.74l8.82,11.98h0l8.83-11.98h9.74l-14.52,19.07v10.16h-8.1v-10.16l-14.52-19.07ZM353,24.98h-7.97c0-1.27-.28-2.14-.84-2.63-.55-.5-1.57-.75-3.06-.75h-8.88c-2.22,0-3.64.45-4.26,1.34-.61.88-.92,2.51-.92,4.89v3.08c0,2.78.34,4.57,1.01,5.36.69.78,2.07,1.19,4.15,1.22h8.65c1.62,0,2.74-.24,3.37-.73.63-.49.94-1.27.94-2.34v-.83h-10.14v-6.07h18.24v8.36c0,3.36-.77,5.63-2.32,6.82-1.53,1.19-4.68,1.79-9.42,1.79h-11.37c-4.01,0-6.93-.79-8.75-2.38-1.82-1.6-2.72-4.29-2.72-8.08v-8.69c0-3.9.88-6.67,2.64-8.29,1.76-1.63,4.7-2.44,8.83-2.44h12.24c3.82,0,6.54.66,8.16,1.98,1.61,1.31,2.42,3.71,2.42,7.19v1.2ZM288.45,22.16v7.12h13.12c1.22,0,2.07-.23,2.55-.69.47-.46.71-1.41.71-2.87,0-1.36-.23-2.29-.69-2.79-.46-.51-1.42-.76-2.89-.76h-12.8ZM280.35,44.16V14.92h24.11c2.73,0,4.75.59,6.06,1.77,1.43,1.33,2.15,3.59,2.15,6.75v2.02c0,2.51-.44,4.32-1.34,5.4-.55.66-1.63,1.26-3.22,1.78,1.44.42,2.43.9,2.97,1.44.99,1.01,1.48,2.7,1.48,5.07v4.99h-8.1v-3.35c0-1.62-.23-2.75-.69-3.36-.47-.62-1.44-.92-2.92-.92h-12.4v7.64h-8.1ZM244.95,44.16V14.92h28.89v6.76h-20.79v4.66h19.66v6.07h-19.66v4.75h21.3v7h-29.4ZM202.4,14.92h12.51l15.43,21.35V14.92h8.1v29.24h-12.51l-15.43-21.35v21.35h-8.1V14.92ZM167,44.16V14.92h28.89v6.76h-20.79v4.66h19.66v6.07h-19.66v4.75h21.3v7h-29.4Z"/>
        <path class="cls-3" d="M376.09,53.19h0c.03.35.1.58.2.7.1.11.36.16.76.16h2.82c.58,0,.87-.22.87-.66,0-.28-.11-.48-.34-.58-.23-.11-.77-.16-1.63-.16h-1.35c-1.05,0-1.82-.07-2.31-.2-.49-.13-.82-.38-.98-.73-.14-.29-.21-.8-.21-1.53,0-.99.22-1.64.65-1.97.44-.32,1.17-.48,2.21-.48h3.09c1.08,0,1.82.17,2.2.5.38.33.57.92.57,1.76v.29h-2.19c0-.31-.07-.51-.2-.61-.13-.1-.43-.16-.89-.16h-2.35c-.6,0-.9.21-.9.63s.21.64.63.65c.42.01.82.02,1.19.02h1.49c1.02,0,1.78.07,2.27.22.5.15.84.41,1.02.79.16.32.24.83.24,1.51s-.08,1.21-.25,1.53c-.18.36-.51.6-.98.74-.47.14-1.2.21-2.18.21h-2.87c-1.06,0-1.78-.16-2.17-.47-.39-.31-.58-.85-.58-1.62v-.55h2.19ZM364.44,55.74v-7.91h7.82v1.83h-5.63v1.26h5.32v1.64h-5.32v1.28h5.77v1.89h-7.96ZM360.65,52.68h2.19v.79c0,.84-.21,1.44-.64,1.81-.42.37-1.11.55-2.05.55h-3.56c-1.09,0-1.88-.21-2.37-.64-.49-.43-.74-1.16-.74-2.19v-2.35c0-1.08.24-1.84.72-2.26.48-.43,1.29-.64,2.41-.64h2.64c1.35,0,2.28.17,2.77.51.5.34.74,1.03.74,2.06v.39s-2.19,0-2.19,0v-.23c0-.24-.09-.42-.25-.54-.16-.12-.43-.18-.81-.18h-2.36c-.52,0-.89.12-1.1.35-.21.23-.31.65-.31,1.27v.77c0,.67.09,1.12.27,1.34.18.21.54.32,1.07.32h2.35c.51,0,.84-.07.98-.21.15-.14.23-.45.24-.91M349.54,47.82h2.19v7.91h-2.19v-7.91ZM343.17,53.69h0l2.82-5.87h2.39l-3.86,7.91h-2.7l-3.86-7.91h2.39l2.81,5.87ZM330.27,49.78v1.93h3.55c.33,0,.56-.06.69-.19.13-.12.19-.38.19-.78,0-.37-.06-.62-.19-.76-.12-.14-.38-.21-.78-.21h-3.46ZM328.08,55.74v-7.91h6.53c.74,0,1.29.16,1.64.48.39.36.58.97.58,1.83v.55c0,.68-.12,1.17-.36,1.46-.15.18-.44.34-.87.48.39.11.66.24.8.39.27.27.4.73.4,1.37v1.35h-2.19v-.91c0-.44-.06-.74-.19-.91-.13-.17-.39-.25-.79-.25h-3.36v2.07h-2.19ZM318.5,55.74v-7.91h7.82v1.83h-5.63v1.26h5.32v1.64h-5.32v1.28h5.77v1.89h-7.96ZM310.01,53.19h0c.03.35.1.58.2.7.1.11.36.16.76.16h2.82c.58,0,.87-.22.87-.66,0-.28-.11-.48-.34-.58-.23-.11-.77-.16-1.63-.16h-1.35c-1.05,0-1.82-.07-2.31-.2-.49-.13-.82-.38-.98-.73-.14-.29-.21-.8-.21-1.53,0-.99.22-1.64.65-1.97.44-.32,1.17-.48,2.21-.48h3.09c1.08,0,1.82.17,2.2.5.38.33.57.92.57,1.76v.29h-2.19c0-.31-.07-.51-.2-.61-.13-.1-.43-.16-.89-.16h-2.35c-.6,0-.9.21-.9.63s.21.64.63.65c.42.01.82.02,1.19.02h1.49c1.02,0,1.78.07,2.27.22.5.15.84.41,1.02.79.16.32.24.83.24,1.51s-.08,1.21-.25,1.53c-.18.36-.51.6-.98.74-.47.14-1.2.21-2.18.21h-2.87c-1.06,0-1.78-.16-2.17-.47-.39-.31-.58-.85-.58-1.62v-.55h2.19ZM294.73,52.1h0c-.21,0-.36.07-.46.22-.09.14-.13.4-.13.77,0,.4.08.67.24.82.16.14.46.22.89.22h3.25,0l-3.45-1.96c-.07-.04-.18-.06-.34-.06M293.8,51.24h0c-.35-.26-.56-.47-.64-.65-.08-.18-.12-.52-.12-1.02,0-.8.16-1.31.48-1.52.32-.21.98-.32,1.96-.32h1.96c1.14,0,1.88.13,2.24.4.36.26.54.84.54,1.71v.54h-1.89v-.35c0-.24-.07-.41-.22-.51-.14-.1-.4-.15-.78-.15h-1.53c-.26,0-.45.03-.57.08-.12.05-.18.19-.18.42,0,.16.03.28.1.37.07.08.19.18.38.29l3.53,2h0s0-1.04,0-1.04h1.78v1.24c0,.35-.02.62-.07.82h0s1.22.69,1.22.69l-.62,1.49-1.22-.71h0c-.21.29-.48.49-.81.61-.33.12-.82.18-1.48.19h-3.08c-.87,0-1.53-.17-1.97-.5-.44-.33-.66-.92-.66-1.76v-.64c0-.62.12-1.04.33-1.27.22-.23.64-.37,1.28-.41M275.89,47.82h3.39l4.18,5.78v-5.78h2.19v7.91h-3.39l-4.18-5.78v5.78h-2.19v-7.91ZM266.7,51.37v.77c0,.67.09,1.12.27,1.34.18.21.53.32,1.06.32h2.72c.51,0,.84-.11,1.01-.34.17-.23.25-.65.25-1.27v-.8c0-.63-.1-1.06-.31-1.28-.2-.23-.55-.34-1.06-.34h-2.54c-.52,0-.89.12-1.09.35-.2.23-.3.65-.3,1.26M264.44,52.98v-2.34c0-1.04.23-1.78.69-2.23.47-.45,1.27-.68,2.42-.68h3.62c1.12,0,1.92.23,2.39.68.47.46.71,1.18.71,2.19v2.37c-.02,1.03-.26,1.76-.72,2.2-.46.43-1.25.65-2.35.65h-3.64c-1.09,0-1.88-.21-2.37-.64-.49-.43-.74-1.16-.74-2.2M260.49,47.82h2.19v7.91h-2.19v-7.91ZM250.76,47.82h8.37v1.96h-3.09v5.95h-2.19v-5.95h-3.09v-1.96ZM247.49,52.68h2.19v.79c0,.84-.21,1.44-.64,1.81-.42.37-1.11.55-2.05.55h-3.56c-1.09,0-1.88-.21-2.37-.64-.49-.43-.74-1.16-.74-2.19v-2.35c0-1.08.24-1.84.72-2.26.48-.43,1.29-.64,2.41-.64h2.64c1.35,0,2.28.17,2.77.51.5.34.74,1.03.74,2.06v.39s-2.19,0-2.19,0v-.23c0-.24-.09-.42-.25-.54-.16-.12-.43-.18-.81-.18h-2.36c-.52,0-.89.12-1.1.35-.21.23-.31.65-.31,1.27v.77c0,.67.09,1.12.27,1.34.18.21.54.32,1.07.32h2.34c.51,0,.84-.07.98-.21.15-.14.23-.45.24-.91M229.69,47.82h2.19v4.55c0,.52.09.89.26,1.1.18.22.5.32.97.32h2.1c.46,0,.78-.1.97-.31.19-.21.29-.58.29-1.12v-4.55h2.19v5.03c0,1-.23,1.75-.69,2.23-.46.49-1.21.73-2.25.73h-3.03c-1.04,0-1.8-.23-2.29-.69-.49-.46-.73-1.21-.73-2.25v-5.06ZM221.33,49.78v1.93h3.55c.33,0,.56-.06.69-.19.13-.12.19-.38.19-.78,0-.37-.06-.62-.19-.76-.12-.14-.38-.21-.78-.21h-3.46ZM219.14,55.74v-7.91h6.53c.74,0,1.29.16,1.64.48.39.36.58.97.58,1.83v.55c0,.68-.12,1.17-.36,1.46-.15.18-.44.34-.87.48.39.11.66.24.8.39.27.27.4.73.4,1.37v1.35h-2.19v-.91c0-.44-.06-.74-.19-.91-.13-.17-.39-.25-.79-.25h-3.36v2.07h-2.19ZM209.52,47.82h8.37v1.96h-3.09v5.95h-2.19v-5.95h-3.09v-1.96ZM201.55,53.19h0c.03.35.1.58.2.7.1.11.36.16.76.16h2.82c.58,0,.87-.22.87-.66,0-.28-.11-.48-.34-.58-.23-.11-.77-.16-1.63-.16h-1.35c-1.05,0-1.82-.07-2.31-.2-.49-.13-.82-.38-.98-.73-.14-.29-.21-.8-.21-1.53,0-.99.22-1.64.65-1.97.44-.32,1.17-.48,2.21-.48h3.09c1.08,0,1.82.17,2.2.5.38.33.57.92.57,1.76v.29h-2.19c0-.31-.07-.51-.2-.61-.13-.1-.43-.16-.89-.16h-2.35c-.6,0-.9.21-.9.63s.21.64.63.65c.42.01.82.02,1.19.02h1.49c1.02,0,1.78.07,2.27.22.5.15.84.41,1.02.79.16.32.24.83.24,1.51s-.08,1.21-.25,1.53c-.18.36-.51.6-.98.74-.47.14-1.2.21-2.18.21h-2.87c-1.06,0-1.78-.16-2.17-.47-.39-.31-.58-.85-.58-1.62v-.55h2.19ZM187.98,47.82h3.39l4.18,5.78v-5.78h2.19v7.91h-3.39l-4.18-5.78v5.78h-2.19v-7.91ZM178.78,51.37v.77c0,.67.09,1.12.27,1.34.18.21.53.32,1.06.32h2.72c.51,0,.84-.11,1.01-.34.17-.23.25-.65.25-1.27v-.8c0-.63-.1-1.06-.31-1.28-.2-.23-.55-.34-1.06-.34h-2.54c-.52,0-.89.12-1.09.35-.2.23-.3.65-.3,1.26M176.52,52.98v-2.34c0-1.04.23-1.78.69-2.23.47-.45,1.27-.68,2.42-.68h3.62c1.12,0,1.92.23,2.39.68.47.46.71,1.18.71,2.19v2.37c-.02,1.03-.26,1.76-.72,2.2-.46.43-1.25.65-2.35.65h-3.64c-1.09,0-1.88-.21-2.37-.64-.49-.43-.74-1.16-.74-2.2M172.89,52.68h2.19v.79c0,.84-.21,1.44-.64,1.81-.42.37-1.11.55-2.05.55h-3.56c-1.09,0-1.88-.21-2.37-.64-.49-.43-.74-1.16-.74-2.19v-2.35c0-1.08.24-1.84.72-2.26.48-.43,1.29-.64,2.41-.64h2.64c1.35,0,2.28.17,2.77.51.5.34.74,1.03.74,2.06v.39s-2.19,0-2.19,0v-.23c0-.24-.09-.42-.25-.54-.16-.12-.43-.18-.81-.18h-2.36c-.52,0-.89.12-1.1.35-.21.23-.31.65-.31,1.27v.77c0,.67.09,1.12.27,1.34.18.21.54.32,1.07.32h2.35c.51,0,.84-.07.98-.21.15-.14.23-.45.24-.91"/>
        <path class="cls-1" d="M92.83,8.23l11.43,19.68-11.95,20.89c-.3.52.12,1.13.79,1.13h8.63c.34,0,.65-.17.79-.44l7.88-14.6c.21-.38.84-.38,1.04,0l4.3,8.28-4.69,9.49,11.24-17.01-4.57-7.85,11.86-19.55c.56-.92-.2-2.03-1.38-2.03h-7.6c-.62,0-1.19.33-1.43.82l-7.4,14.8c-.2.41-.85.41-1.05,0l-7.4-14.8c-.25-.5-.82-.82-1.43-.82h-7.65c-1.17,0-1.93,1.1-1.4,2.01"/>
        <path class="cls-3" d="M143.28,15.81h-4.32l4.07-8.95-10.99,16.57h9.45c1.8,0,3.27,1.3,3.27,2.89v7.85c0,1.6-1.47,2.89-3.27,2.89h-10.31v-12.31l-10.25,15.47v18.05c0,1.05.97,1.9,2.16,1.9h5.68c1.19,0,2.16-.86,2.16-1.9v-13.69h12.35c6.21,0,11.24-4.44,11.24-9.92v-8.94c0-5.48-5.03-9.91-11.24-9.91"/>
      </g>
    </g>
  </g>
</svg>